<?xml version="1.0" encoding="utf-8"?>
<!-- Generator: Adobe Illustrator 23.0.3, SVG Export Plug-In . SVG Version: 6.00 Build 0)  -->
<svg version="1.1" baseProfile="tiny" id="Layer_1" xmlns="http://www.w3.org/2000/svg" xmlns:xlink="http://www.w3.org/1999/xlink"
	 x="0px" y="0px" viewBox="0 0 250 350" xml:space="preserve">
<rect x="82.3" y="194.8" fill="#F6F7D6" width="83" height="46.8"/>
<g id="letter">
	<rect x="88.8" y="203" fill="none" width="45.8" height="27.2"/>
	<text transform="matrix(1 0 0 1 88.7533 207.7186)" font-family="'AmericanTypewriter-Semibold'" font-size="7px">M</text>
	<text transform="matrix(1 0 0 1 95.3823 207.7186)" font-family="'AmericanTypewriter-Semibold'" font-size="7px">Y</text>
	<text transform="matrix(1 0 0 1 100.4784 207.7186)" font-family="'AmericanTypewriter-Semibold'" font-size="7px"> </text>
	<text transform="matrix(1 0 0 1 88.7533 216.119)" font-family="'AmericanTypewriter-Semibold'" font-size="7px">M</text>
	<text transform="matrix(1 0 0 1 95.3823 216.119)" font-family="'AmericanTypewriter-Semibold'" font-size="7px">O</text>
	<text transform="matrix(1 0 0 1 99.7924 216.119)" font-family="'AmericanTypewriter-Semibold'" font-size="7px">V</text>
	<text transform="matrix(1 0 0 1 104.8881 216.119)" font-family="'AmericanTypewriter-Semibold'" font-size="7px">I</text>
	<text transform="matrix(1 0 0 1 107.5619 216.119)" font-family="'AmericanTypewriter-Semibold'" font-size="7px">E</text>
	<text transform="matrix(1 0 0 1 88.7533 224.5184)" font-family="'AmericanTypewriter-Semibold'" font-size="7px">(</text>
	<text transform="matrix(1 0 0 1 91.9384 224.5184)" font-family="'DINAlternate-Bold'" font-size="6px">P</text>
	<text transform="matrix(1 0 0 1 95.495 224.5184)" font-family="'DINAlternate-Bold'" font-size="6px">O</text>
	<text transform="matrix(1 0 0 1 99.1542 224.5184)" font-family="'DINAlternate-Bold'" font-size="6px">S</text>
	<text transform="matrix(1 0 0 1 102.5966 224.5184)" font-family="'DINAlternate-Bold'" font-size="6px">T</text>
	<text transform="matrix(1 0 0 1 105.5961 224.5184)" font-family="'AmericanTypewriter-Semibold'" font-size="7px">)</text>
	<text transform="matrix(1 0 0 1 108.7807 224.5184)" font-family="'AmericanTypewriter-Semibold'" font-size="7px">E</text>
	<text transform="matrix(1 0 0 1 113.4916 224.5184)" font-family="'AmericanTypewriter-Semibold'" font-size="7px">R</text>
	<rect x="55.9" y="257.3" fill="none" width="134.9" height="17.5"/>
</g>
<g>
	<rect x="54.1" y="198.5" width="139.4" height="54.3"/>
	<polygon fill="#545252" points="179.8,242.6 70.1,242.6 75.6,202.3 170.1,202.3 	"/>
</g>
<g>
	<path fill="#C1C1B8" d="M89.6,215.1h-0.2c-1.9,0-3.4-1.5-3.4-3.4l0,0c0-1.9,1.5-3.4,3.4-3.4h0.2c1.9,0,3.4,1.5,3.4,3.4l0,0
		C93,213.5,91.5,215.1,89.6,215.1z"/>
	<path fill="#C1C1B8" d="M99,214.9h-0.2c-1.9,0-3.4-1.5-3.4-3.4l0,0c0-1.9,1.5-3.4,3.4-3.4H99c1.9,0,3.4,1.5,3.4,3.4l0,0
		C102.4,213.4,100.9,214.9,99,214.9z"/>
	<path fill="#C1C1B8" d="M108.5,214.8h-0.2c-1.9,0-3.4-1.5-3.4-3.4v0c0-1.9,1.5-3.4,3.4-3.4h0.2c1.9,0,3.4,1.5,3.4,3.4v0
		C111.9,213.3,110.3,214.8,108.5,214.8z"/>
	<path fill="#C1C1B8" d="M117.8,214.7h-0.2c-1.9,0-3.4-1.5-3.4-3.4l0,0c0-1.9,1.5-3.4,3.4-3.4h0.2c1.9,0,3.4,1.5,3.4,3.4l0,0
		C121.2,213.2,119.7,214.7,117.8,214.7z"/>
	<path fill="#C1C1B8" d="M126.9,214.6h-0.2c-1.9,0-3.4-1.5-3.4-3.4l0,0c0-1.9,1.5-3.4,3.4-3.4h0.2c1.9,0,3.4,1.5,3.4,3.4l0,0
		C130.3,213.1,128.8,214.6,126.9,214.6z"/>
	<path fill="#C1C1B8" d="M136.3,214.5h-0.2c-1.9,0-3.4-1.5-3.4-3.4l0,0c0-1.9,1.5-3.4,3.4-3.4h0.2c1.9,0,3.4,1.5,3.4,3.4l0,0
		C139.7,212.9,138.1,214.5,136.3,214.5z"/>
	<path fill="#C1C1B8" d="M145.7,214.4h-0.2c-1.9,0-3.4-1.5-3.4-3.4v0c0-1.9,1.5-3.4,3.4-3.4h0.2c1.9,0,3.4,1.5,3.4,3.4v0
		C149.1,212.8,147.6,214.4,145.7,214.4z"/>
	<path fill="#C1C1B8" d="M155.1,214.2h-0.2c-1.9,0-3.4-1.5-3.4-3.4l0,0c0-1.9,1.5-3.4,3.4-3.4h0.2c1.9,0,3.4,1.5,3.4,3.4l0,0
		C158.5,212.7,156.9,214.2,155.1,214.2z"/>
	<path fill="#C1C1B8" d="M90.1,224.8H90c-1.9,0-3.4-1.5-3.4-3.4v0c0-1.9,1.5-3.4,3.4-3.4h0.2c1.9,0,3.4,1.5,3.4,3.4v0
		C93.5,223.2,92,224.8,90.1,224.8z"/>
	<path fill="#C1C1B8" d="M99.5,224.6h-0.2c-1.9,0-3.4-1.5-3.4-3.4l0,0c0-1.9,1.5-3.4,3.4-3.4h0.2c1.9,0,3.4,1.5,3.4,3.4l0,0
		C102.9,223.1,101.4,224.6,99.5,224.6z"/>
	<path fill="#C1C1B8" d="M109,224.5h-0.2c-1.9,0-3.4-1.5-3.4-3.4v0c0-1.9,1.5-3.4,3.4-3.4h0.2c1.9,0,3.4,1.5,3.4,3.4v0
		C112.3,223,110.8,224.5,109,224.5z"/>
	<path fill="#C1C1B8" d="M118.3,224.4h-0.2c-1.9,0-3.4-1.5-3.4-3.4v0c0-1.9,1.5-3.4,3.4-3.4h0.2c1.9,0,3.4,1.5,3.4,3.4v0
		C121.7,222.9,120.2,224.4,118.3,224.4z"/>
	<path fill="#C1C1B8" d="M127.4,224.3h-0.2c-1.9,0-3.4-1.5-3.4-3.4l0,0c0-1.9,1.5-3.4,3.4-3.4h0.2c1.9,0,3.4,1.5,3.4,3.4l0,0
		C130.8,222.8,129.3,224.3,127.4,224.3z"/>
	<path fill="#C1C1B8" d="M136.8,224.2h-0.2c-1.9,0-3.4-1.5-3.4-3.4l0,0c0-1.9,1.5-3.4,3.4-3.4h0.2c1.9,0,3.4,1.5,3.4,3.4l0,0
		C140.1,222.7,138.6,224.2,136.8,224.2z"/>
	<path fill="#C1C1B8" d="M146.2,224.1H146c-1.9,0-3.4-1.5-3.4-3.4v0c0-1.9,1.5-3.4,3.4-3.4h0.2c1.9,0,3.4,1.5,3.4,3.4v0
		C149.6,222.6,148.1,224.1,146.2,224.1z"/>
	<path fill="#C1C1B8" d="M155.6,224h-0.2c-1.9,0-3.4-1.5-3.4-3.4v0c0-1.9,1.5-3.4,3.4-3.4h0.2c1.9,0,3.4,1.5,3.4,3.4v0
		C159,222.4,157.4,224,155.6,224z"/>
	<path fill="#C1C1B8" d="M89,235h-0.2c-1.9,0-3.4-1.5-3.4-3.4l0,0c0-1.9,1.5-3.4,3.4-3.4H89c1.9,0,3.4,1.5,3.4,3.4l0,0
		C92.4,233.4,90.9,235,89,235z"/>
	<path fill="#C1C1B8" d="M100.4,234.8h-0.2c-1.9,0-3.4-1.5-3.4-3.4l0,0c0-1.9,1.5-3.4,3.4-3.4h0.2c1.9,0,3.4,1.5,3.4,3.4l0,0
		C103.7,233.3,102.2,234.8,100.4,234.8z"/>
	<path fill="#C1C1B8" d="M109.8,234.7h-0.2c-1.9,0-3.4-1.5-3.4-3.4v0c0-1.9,1.5-3.4,3.4-3.4h0.2c1.9,0,3.4,1.5,3.4,3.4v0
		C113.2,233.2,111.7,234.7,109.8,234.7z"/>
	<path fill="#C1C1B8" d="M119.2,234.6H119c-1.9,0-3.4-1.5-3.4-3.4v0c0-1.9,1.5-3.4,3.4-3.4h0.2c1.9,0,3.4,1.5,3.4,3.4v0
		C122.6,233.1,121,234.6,119.2,234.6z"/>
	<path fill="#C1C1B8" d="M128.2,234.5H128c-1.9,0-3.4-1.5-3.4-3.4l0,0c0-1.9,1.5-3.4,3.4-3.4h0.2c1.9,0,3.4,1.5,3.4,3.4l0,0
		C131.6,233,130.1,234.5,128.2,234.5z"/>
	<path fill="#C1C1B8" d="M137.6,234.4h-0.2c-1.9,0-3.4-1.5-3.4-3.4l0,0c0-1.9,1.5-3.4,3.4-3.4h0.2c1.9,0,3.4,1.5,3.4,3.4l0,0
		C141,232.9,139.5,234.4,137.6,234.4z"/>
	<path fill="#C1C1B8" d="M147.1,234.3h-0.2c-1.9,0-3.4-1.5-3.4-3.4v0c0-1.9,1.5-3.4,3.4-3.4h0.2c1.9,0,3.4,1.5,3.4,3.4v0
		C150.4,232.8,148.9,234.3,147.1,234.3z"/>
	<path fill="#C1C1B8" d="M156.4,234.2h-0.2c-1.9,0-3.4-1.5-3.4-3.4l0,0c0-1.9,1.5-3.4,3.4-3.4h0.2c1.9,0,3.4,1.5,3.4,3.4l0,0
		C159.8,232.6,158.3,234.2,156.4,234.2z"/>
</g>
<g>
	<path fill="#F6F7D6" d="M89.6,214.1h-0.2c-1.9,0-3.4-1.5-3.4-3.4l0,0c0-1.9,1.5-3.4,3.4-3.4h0.2c1.9,0,3.4,1.5,3.4,3.4l0,0
		C93,212.5,91.5,214.1,89.6,214.1z"/>
	<path fill="#F6F7D6" d="M99,213.9h-0.2c-1.9,0-3.4-1.5-3.4-3.4l0,0c0-1.9,1.5-3.4,3.4-3.4H99c1.9,0,3.4,1.5,3.4,3.4l0,0
		C102.4,212.4,100.9,213.9,99,213.9z"/>
	<path fill="#F6F7D6" d="M108.5,213.8h-0.2c-1.9,0-3.4-1.5-3.4-3.4v0c0-1.9,1.5-3.4,3.4-3.4h0.2c1.9,0,3.4,1.5,3.4,3.4v0
		C111.9,212.3,110.3,213.8,108.5,213.8z"/>
	<path fill="#F6F7D6" d="M117.8,213.7h-0.2c-1.9,0-3.4-1.5-3.4-3.4l0,0c0-1.9,1.5-3.4,3.4-3.4h0.2c1.9,0,3.4,1.5,3.4,3.4l0,0
		C121.2,212.2,119.7,213.7,117.8,213.7z"/>
	<path fill="#F6F7D6" d="M126.9,213.6h-0.2c-1.9,0-3.4-1.5-3.4-3.4l0,0c0-1.9,1.5-3.4,3.4-3.4h0.2c1.9,0,3.4,1.5,3.4,3.4l0,0
		C130.3,212.1,128.8,213.6,126.9,213.6z"/>
	<path fill="#F6F7D6" d="M136.3,213.5h-0.2c-1.9,0-3.4-1.5-3.4-3.4l0,0c0-1.9,1.5-3.4,3.4-3.4h0.2c1.9,0,3.4,1.5,3.4,3.4l0,0
		C139.7,211.9,138.1,213.5,136.3,213.5z"/>
	<path fill="#F6F7D6" d="M145.7,213.4h-0.2c-1.9,0-3.4-1.5-3.4-3.4v0c0-1.9,1.5-3.4,3.4-3.4h0.2c1.9,0,3.4,1.5,3.4,3.4v0
		C149.1,211.8,147.6,213.4,145.7,213.4z"/>
	<path fill="#F6F7D6" d="M155.1,213.2h-0.2c-1.9,0-3.4-1.5-3.4-3.4l0,0c0-1.9,1.5-3.4,3.4-3.4h0.2c1.9,0,3.4,1.5,3.4,3.4l0,0
		C158.5,211.7,156.9,213.2,155.1,213.2z"/>
	<path fill="#F6F7D6" d="M90.1,223.8H90c-1.9,0-3.4-1.5-3.4-3.4v0c0-1.9,1.5-3.4,3.4-3.4h0.2c1.9,0,3.4,1.5,3.4,3.4v0
		C93.5,222.2,92,223.8,90.1,223.8z"/>
	<path fill="#F6F7D6" d="M99.5,223.6h-0.2c-1.9,0-3.4-1.5-3.4-3.4l0,0c0-1.9,1.5-3.4,3.4-3.4h0.2c1.9,0,3.4,1.5,3.4,3.4l0,0
		C102.9,222.1,101.4,223.6,99.5,223.6z"/>
	<path fill="#F6F7D6" d="M109,223.5h-0.2c-1.9,0-3.4-1.5-3.4-3.4v0c0-1.9,1.5-3.4,3.4-3.4h0.2c1.9,0,3.4,1.5,3.4,3.4v0
		C112.3,222,110.8,223.5,109,223.5z"/>
	<path fill="#F6F7D6" d="M118.3,223.4h-0.2c-1.9,0-3.4-1.5-3.4-3.4v0c0-1.9,1.5-3.4,3.4-3.4h0.2c1.9,0,3.4,1.5,3.4,3.4v0
		C121.7,221.9,120.2,223.4,118.3,223.4z"/>
	<path fill="#F6F7D6" d="M127.4,223.3h-0.2c-1.9,0-3.4-1.5-3.4-3.4l0,0c0-1.9,1.5-3.4,3.4-3.4h0.2c1.9,0,3.4,1.5,3.4,3.4l0,0
		C130.8,221.8,129.3,223.3,127.4,223.3z"/>
	<path fill="#F6F7D6" d="M136.8,223.2h-0.2c-1.9,0-3.4-1.5-3.4-3.4l0,0c0-1.9,1.5-3.4,3.4-3.4h0.2c1.9,0,3.4,1.5,3.4,3.4l0,0
		C140.1,221.7,138.6,223.2,136.8,223.2z"/>
	<path fill="#F6F7D6" d="M146.2,223.1H146c-1.9,0-3.4-1.5-3.4-3.4v0c0-1.9,1.5-3.4,3.4-3.4h0.2c1.9,0,3.4,1.5,3.4,3.4v0
		C149.6,221.6,148.1,223.1,146.2,223.1z"/>
	<path fill="#F6F7D6" d="M155.6,223h-0.2c-1.9,0-3.4-1.5-3.4-3.4v0c0-1.9,1.5-3.4,3.4-3.4h0.2c1.9,0,3.4,1.5,3.4,3.4v0
		C159,221.4,157.4,223,155.6,223z"/>
	<path fill="#F6F7D6" d="M89,234h-0.2c-1.9,0-3.4-1.5-3.4-3.4l0,0c0-1.9,1.5-3.4,3.4-3.4H89c1.9,0,3.4,1.5,3.4,3.4l0,0
		C92.4,232.4,90.9,234,89,234z"/>
	<path fill="#F6F7D6" d="M100.4,233.8h-0.2c-1.9,0-3.4-1.5-3.4-3.4l0,0c0-1.9,1.5-3.4,3.4-3.4h0.2c1.9,0,3.4,1.5,3.4,3.4l0,0
		C103.7,232.3,102.2,233.8,100.4,233.8z"/>
	<path fill="#F6F7D6" d="M109.8,233.7h-0.2c-1.9,0-3.4-1.5-3.4-3.4v0c0-1.9,1.5-3.4,3.4-3.4h0.2c1.9,0,3.4,1.5,3.4,3.4v0
		C113.2,232.2,111.7,233.7,109.8,233.7z"/>
	<path fill="#F6F7D6" d="M119.2,233.6H119c-1.9,0-3.4-1.5-3.4-3.4v0c0-1.9,1.5-3.4,3.4-3.4h0.2c1.9,0,3.4,1.5,3.4,3.4v0
		C122.6,232.1,121,233.6,119.2,233.6z"/>
	<path fill="#F6F7D6" d="M128.2,233.5H128c-1.9,0-3.4-1.5-3.4-3.4l0,0c0-1.9,1.5-3.4,3.4-3.4h0.2c1.9,0,3.4,1.5,3.4,3.4l0,0
		C131.6,232,130.1,233.5,128.2,233.5z"/>
	<path fill="#F6F7D6" d="M137.6,233.4h-0.2c-1.9,0-3.4-1.5-3.4-3.4l0,0c0-1.9,1.5-3.4,3.4-3.4h0.2c1.9,0,3.4,1.5,3.4,3.4l0,0
		C141,231.9,139.5,233.4,137.6,233.4z"/>
	<path fill="#F6F7D6" d="M147.1,233.3h-0.2c-1.9,0-3.4-1.5-3.4-3.4v0c0-1.9,1.5-3.4,3.4-3.4h0.2c1.9,0,3.4,1.5,3.4,3.4v0
		C150.4,231.8,148.9,233.3,147.1,233.3z"/>
	<path fill="#F6F7D6" d="M156.4,233.2h-0.2c-1.9,0-3.4-1.5-3.4-3.4l0,0c0-1.9,1.5-3.4,3.4-3.4h0.2c1.9,0,3.4,1.5,3.4,3.4l0,0
		C159.8,231.6,158.3,233.2,156.4,233.2z"/>
</g>
<rect x="42" y="200.2" width="10.9" height="10.9"/>
</svg>
